<svg xmlns="http://www.w3.org/2000/svg" xmlns:xlink="http://www.w3.org/1999/xlink" viewBox="0 0 8300 1500"><defs><style>.cls-1{fill:none;clip-rule:evenodd;}.cls-2{isolation:isolate;}.cls-3{fill:url(#linear-gradient);}.cls-4{fill:url(#linear-gradient-2);}.cls-5{fill:url(#linear-gradient-3);}.cls-6{fill:url(#linear-gradient-4);}.cls-7{fill:url(#linear-gradient-5);}.cls-8{fill:url(#linear-gradient-6);}.cls-9{fill:url(#linear-gradient-7);}.cls-10{fill:url(#linear-gradient-8);}.cls-11{fill:#f7a20b;}.cls-12{fill:url(#linear-gradient-9);}.cls-13{fill:url(#linear-gradient-10);}.cls-14{fill:url(#linear-gradient-11);}.cls-15{fill:url(#linear-gradient-12);}.cls-16{fill:url(#linear-gradient-13);}.cls-17{fill:url(#linear-gradient-14);}.cls-18{fill:url(#linear-gradient-15);}.cls-19{clip-path:url(#clip-path);}.cls-20,.cls-21,.cls-24,.cls-25{fill-rule:evenodd;}.cls-20{fill:url(#linear-gradient-16);}.cls-21{fill:url(#linear-gradient-17);}.cls-22{fill:url(#linear-gradient-18);}.cls-23{fill:url(#linear-gradient-19);}.cls-24{fill:url(#linear-gradient-20);}.cls-25{fill:url(#linear-gradient-21);}.cls-26,.cls-28{opacity:0.2;mix-blend-mode:multiply;}.cls-27{fill:url(#linear-gradient-22);}.cls-29{fill:url(#linear-gradient-23);}.cls-30{fill:url(#linear-gradient-24);}.cls-31{fill:url(#linear-gradient-25);}</style><linearGradient id="linear-gradient" x1="496.65" y1="765.65" x2="704.37" y2="627.69" gradientTransform="translate(3321.71 966.38) rotate(180)" gradientUnits="userSpaceOnUse"><stop offset="0" stop-color="#fcee21"/><stop offset="0.06" stop-color="#fce724"/><stop offset="0.14" stop-color="#fcd42c"/><stop offset="0.23" stop-color="#fbb539"/><stop offset="0.24" stop-color="#fbb03b"/><stop offset="1" stop-color="#f6a241"/></linearGradient><linearGradient id="linear-gradient-2" x1="532.73" y1="768.58" x2="680.98" y2="670.12" gradientTransform="translate(3321.71 966.38) rotate(180)" gradientUnits="userSpaceOnUse"><stop offset="0" stop-color="#fcee21"/><stop offset="0.05" stop-color="#fce923"/><stop offset="0.12" stop-color="#fcdb29"/><stop offset="0.19" stop-color="#fbc433"/><stop offset="0.23" stop-color="#fbb03b"/><stop offset="1" stop-color="#f6a241"/></linearGradient><linearGradient id="linear-gradient-3" x1="2542.67" y1="651.42" x2="2792.01" y2="651.42" gradientUnits="userSpaceOnUse"><stop offset="0.06" stop-color="#317b4f"/><stop offset="0.18" stop-color="#32925b"/><stop offset="0.38" stop-color="#32ad69"/><stop offset="0.57" stop-color="#33c173"/><stop offset="0.76" stop-color="#33cd79"/><stop offset="0.96" stop-color="#33d17b"/></linearGradient><linearGradient id="linear-gradient-4" x1="2979.55" y1="786.85" x2="3608.09" y2="786.85" gradientUnits="userSpaceOnUse"><stop offset="0.06" stop-color="#317b4f"/><stop offset="0.08" stop-color="#318152"/><stop offset="0.22" stop-color="#329e61"/><stop offset="0.37" stop-color="#32b56d"/><stop offset="0.53" stop-color="#33c575"/><stop offset="0.71" stop-color="#33ce79"/><stop offset="0.96" stop-color="#33d17b"/></linearGradient><linearGradient id="linear-gradient-5" x1="3429.5" y1="791.85" x2="3840.91" y2="791.85" xlink:href="#linear-gradient-3"/><linearGradient id="linear-gradient-6" x1="20336.42" y1="30322.72" x2="13619.18" y2="30322.96" gradientTransform="matrix(0.07, 0, 0, -0.07, 919.65, 2965.2)" gradientUnits="userSpaceOnUse"><stop offset="0" stop-color="#fcee21"/><stop offset="0.49" stop-color="#fbb03b"/><stop offset="1" stop-color="#f6a241"/></linearGradient><linearGradient id="linear-gradient-7" x1="13936.48" y1="31013.89" x2="21573.82" y2="35323.41" gradientTransform="matrix(0.07, 0, 0, -0.07, 919.65, 2965.2)" xlink:href="#linear-gradient-4"/><linearGradient id="linear-gradient-8" x1="15906.85" y1="31763.89" x2="21807.14" y2="34639.96" gradientTransform="matrix(0.07, 0, 0, -0.07, 919.65, 2965.2)" gradientUnits="userSpaceOnUse"><stop offset="0.02" stop-color="#317b4f"/><stop offset="0.25" stop-color="#32985e"/><stop offset="0.55" stop-color="#32b76e"/><stop offset="0.8" stop-color="#33ca77"/><stop offset="0.98" stop-color="#33d17b"/></linearGradient><linearGradient id="linear-gradient-9" x1="13885.2" y1="29662.39" x2="21495.35" y2="25368.22" gradientTransform="matrix(0.07, 0, 0, -0.07, 919.65, 2965.2)" gradientUnits="userSpaceOnUse"><stop offset="0.02" stop-color="#317b4f"/><stop offset="0.17" stop-color="#32945c"/><stop offset="0.37" stop-color="#32af69"/><stop offset="0.57" stop-color="#33c273"/><stop offset="0.78" stop-color="#33cd79"/><stop offset="1" stop-color="#33d17b"/></linearGradient><linearGradient id="linear-gradient-10" x1="15949.87" y1="28861.56" x2="21871.37" y2="25975.41" gradientTransform="matrix(0.07, 0, 0, -0.07, 919.65, 2965.2)" gradientUnits="userSpaceOnUse"><stop offset="0.02" stop-color="#317b4f"/><stop offset="0.28" stop-color="#329c60"/><stop offset="0.55" stop-color="#32b96f"/><stop offset="0.79" stop-color="#33cb78"/><stop offset="0.96" stop-color="#33d17b"/></linearGradient><linearGradient id="linear-gradient-11" x1="3847.49" y1="642.01" x2="4352.62" y2="1020.43" gradientTransform="matrix(1, 0, 0, 1, 0, 0)" xlink:href="#linear-gradient-6"/><linearGradient id="linear-gradient-12" x1="4913.82" y1="464.74" x2="5552.41" y2="1494.59" gradientTransform="matrix(1, 0, 0, 1, 0, 0)" xlink:href="#linear-gradient-6"/><linearGradient id="linear-gradient-13" x1="5697.39" y1="660.35" x2="6274.56" y2="985.07" gradientTransform="matrix(1, 0, 0, 1, 0, 0)" xlink:href="#linear-gradient-6"/><linearGradient id="linear-gradient-14" x1="6612.91" y1="771.92" x2="7142.69" y2="1316.07" gradientTransform="matrix(1, 0, 0, 1, 0, 0)" xlink:href="#linear-gradient-6"/><linearGradient id="linear-gradient-15" x1="2673.56" y1="666.76" x2="2794.51" y2="661.43" gradientUnits="userSpaceOnUse"><stop offset="0.06" stop-color="#317b4f"/><stop offset="0.21" stop-color="#329a5f"/><stop offset="0.38" stop-color="#32b26b"/><stop offset="0.55" stop-color="#33c374"/><stop offset="0.74" stop-color="#33ce79"/><stop offset="0.96" stop-color="#33d17b"/></linearGradient><clipPath id="clip-path"><path class="cls-1" d="M1528.34,729.76c0,312.69-250.84,568-563.53,568S398.63,1044.26,398.63,731.57,652.12,165.39,964.81,165.39a563.67,563.67,0,0,1,340,113.43C1442.17,382.13,1528.34,544.67,1528.34,729.76Z"/></clipPath><linearGradient id="linear-gradient-16" x1="602.77" y1="925.58" x2="1537.39" y2="424.03" gradientTransform="matrix(1, 0, 0, 1, 0, 0)" xlink:href="#linear-gradient-9"/><linearGradient id="linear-gradient-17" x1="194.05" y1="1128.5" x2="1198.5" y2="589.47" gradientUnits="userSpaceOnUse"><stop offset="0" stop-color="#d9e021"/><stop offset="0.12" stop-color="#00afa2"/><stop offset="0.16" stop-color="#00ad9a"/><stop offset="0.28" stop-color="#00aa8a"/><stop offset="0.41" stop-color="#00a880"/><stop offset="0.58" stop-color="#00a77d"/><stop offset="1" stop-color="#006837"/></linearGradient><linearGradient id="linear-gradient-18" x1="1613.29" y1="316.11" x2="408.73" y2="316.11" gradientTransform="matrix(1, 0, 0, 1, 0, 0)" xlink:href="#linear-gradient-6"/><linearGradient id="linear-gradient-19" x1="1613.29" y1="715.67" x2="408.73" y2="715.67" gradientTransform="matrix(1, 0, 0, 1, 0, 0)" xlink:href="#linear-gradient-6"/><linearGradient id="linear-gradient-20" x1="1308.85" y1="487.75" x2="300.52" y2="487.75" gradientTransform="translate(541.73 -217.98) rotate(9.63)" gradientUnits="userSpaceOnUse"><stop offset="0" stop-color="#f6a241"/><stop offset="1" stop-color="#fccb5a"/></linearGradient><linearGradient id="linear-gradient-21" x1="1308.86" y1="1044.03" x2="300.51" y2="1044.03" xlink:href="#linear-gradient-20"/><linearGradient id="linear-gradient-22" x1="1046.19" y1="462.91" x2="1659.89" y2="462.91" gradientTransform="matrix(1.18, -0.16, -0.16, 1.15, -225.12, 205.08)" xlink:href="#linear-gradient-6"/><linearGradient id="linear-gradient-23" x1="3405.38" y1="2498.98" x2="3912.13" y2="2498.98" gradientTransform="matrix(-0.67, -0.74, 0.98, -0.89, 1128.92, 5420.59)" xlink:href="#linear-gradient-6"/><linearGradient id="linear-gradient-24" x1="3405.38" y1="2497.87" x2="3812.63" y2="2497.87" gradientTransform="matrix(-0.67, -0.74, 0.98, -0.89, 1128.92, 5420.59)" xlink:href="#linear-gradient-6"/><linearGradient id="linear-gradient-25" x1="3572.47" y1="2501.34" x2="3883.8" y2="2501.34" gradientTransform="matrix(-0.67, -0.74, 0.98, -0.89, 1128.92, 5420.59)" xlink:href="#linear-gradient-6"/></defs><g class="cls-2"><g id="Layer_9" data-name="Layer 9"><path class="cls-3" d="M2816.25,350.4v-180h-162V352.45"/><path class="cls-4" d="M2735.25,350.4v-180h-81V352.45"/><path class="cls-5" d="M2735.25,192.28a161.29,161.29,0,0,0-81-21.67v961.62h162V332.61A162,162,0,0,0,2735.25,192.28Z"/><path class="cls-6" d="M3527.09,505.62q81,73.23,81,221v405.64H3455.17V1048q-29.8,45.38-84.89,69.34t-132.84,24q-77.78,0-136.08-26.56t-90.06-73.88q-31.77-47.29-31.75-106.92,0-93.3,69.32-149.69t218.38-56.39h178.84V717.51q0-72.56-43.42-111.45t-128.94-38.89A372.07,372.07,0,0,0,3159,585.33q-56.39,18.13-95.25,50.53l-63.5-117.92q54.42-41.49,130.89-63.52t162-22Q3446.08,432.39,3527.09,505.62ZM3379.34,995.51q47.29-27.85,66.75-79.71V835.45H3278.92q-140,0-140,92,0,44.06,35,70t97.2,25.92Q3332,1023.37,3379.34,995.51Z"/><path class="cls-7" d="M3608.09,726.75V1132.4h-62.24a152.11,152.11,0,0,0,11.47-58.06V648.05c0-87.35-52.67-163-127.82-196.75q57.59,18.31,97.59,54.49Q3608.09,579,3608.09,726.75Z"/><path class="cls-8" d="M1904.45,840a351,351,0,0,1,0-115.94h230.39c29.11,0,54.06-8,77.85-24.78,39.42-27.62,94.48-24,129.74,11.14h0c.5.67,1.17,1.33,1.67,2h0a9.61,9.61,0,0,1,1.83,1.83h0c.5.66,1.16,1.33,1.66,2h0c.67.67,1.17,1.34,1.66,1.83h0c.5.67,1.17,1.33,1.67,2h0a23.75,23.75,0,0,0,1.5,2.16h0l1.49,2h0a24,24,0,0,1,1.33,2.16h0a13.6,13.6,0,0,1,1.33,2h0c.5.83.84,1.49,1.33,2.16h0a13.92,13.92,0,0,1,1.17,2.16h0c.5.67.83,1.5,1.33,2.16h0c.33.84.66,1.5,1,2.33h0a8.81,8.81,0,0,1,1.16,2.17h0c.33.66.67,1.49,1,2.32h0a11.36,11.36,0,0,1,.83,2.17h0c.33.83.67,1.49,1,2.33h0c.33.83.5,1.49.83,2.32h0a21,21,0,0,0,.83,2.33h0c.17.67.5,1.5.67,2.33h0c.16.83.5,1.5.66,2.33h0c.17.83.34,1.5.5,2.33h0a13.42,13.42,0,0,1,.67,2.5h0c.16.66.33,1.49.5,2.32h0a11.78,11.78,0,0,1,.33,2.33h0l.5,2.5h0c0,.83.17,1.49.17,2.33h0a13.29,13.29,0,0,1,.33,2.49h0c0,.83.16,1.5.16,2.33h0a12.32,12.32,0,0,1,.17,2.5h0c0,.83.17,1.66.17,2.49h0v2.33h0v2.49h0c0,.84-.17,1.5-.17,2.33h0a12.32,12.32,0,0,1-.17,2.5h0c0,.83-.16,1.66-.16,2.33h0a13.29,13.29,0,0,1-.33,2.49h0c0,.83-.17,1.67-.17,2.33h0l-.5,2.5h0a10.22,10.22,0,0,1-.33,2.33h0l-.5,2.49h0a16.4,16.4,0,0,1-.67,2.33h0c-.16.83-.33,1.5-.5,2.33h0c-.16.83-.5,1.66-.66,2.33h0c-.17.83-.5,1.66-.67,2.33h0a21.6,21.6,0,0,0-.83,2.32h0c-.33.84-.5,1.67-.83,2.33h0c-.33.83-.67,1.5-1,2.33h0a12.76,12.76,0,0,1-.83,2.33h0c-.33.67-.67,1.5-1,2.16h0a14.86,14.86,0,0,1-1.16,2.33h0c-.34.67-.67,1.5-1,2.16h0c-.5.67-.83,1.5-1.33,2.17h0a13.92,13.92,0,0,1-1.17,2.16h0c-.49.66-.83,1.5-1.33,2.16h0c-.33.67-.83,1.33-1.33,2.16h0c-.5.67-.83,1.34-1.33,2h0a23.15,23.15,0,0,0-1.49,2.16h0l-1.5,2h0c-.5.66-1.17,1.33-1.67,2h0a16.2,16.2,0,0,1-1.66,2h0a18.92,18.92,0,0,0-1.66,1.83h0a20.76,20.76,0,0,1-1.83,2h0a17.85,17.85,0,0,0-1.67,1.83h0c-35.26,35.1-90.32,38.75-129.74,11.14C2188.9,847.77,2164,840,2134.84,840H1904.45Z"/><path class="cls-9" d="M1915.43,676.11a360.45,360.45,0,0,1,599.5-149.05l-103.8,103.8a213.84,213.84,0,0,0-301.91,0l-2.49,2.5c-27.45,28.44-61.55,42.75-101.14,42.75Z"/><path class="cls-10" d="M2463.7,578.3a287,287,0,0,0-203.6-84.17c-121.6,0-225.57,75.35-267.82,182h13.31c39.59,0,73.69-14.31,101.14-42.75l2.49-2.5a213.84,213.84,0,0,1,301.91,0Z"/><path class="cls-11" d="M2357.9,833.3m12.48-34.43,1-26.62-1-7.32-12.48,11.65-303.24,6.48h-155a363.41,363.41,0,0,0,4.82,56.89h230.39c29.11,0,54.06,7.82,77.85,24.62,39.42,27.61,94.48,24,129.74-11.14l1.67-1.83,1.83-2,1.66-1.83,1.66-2,1.67-2,1.5-2,1.49-2.16,1.33-2,1.33-2.16,1.33-2.16,1.17-2.16,1.33-2.17,1-2.16,1.16-2.33,1-2.16.83-2.33,1-2.33.83-2.33.83-2.32.67-2.33.66-2.33.5-2.33.67-2.33.5-2.49.33-2.33.5-2.5.17-2.33.33-2.49.16-2.33.17-2.5.17-2.33v-4.82l-.17-2.49-.17-2.5-.16-2.33-.33-2.49-.17-2.33-.5-2.5-.33-2.33-.5-2.32-.67-2.5-.5-2.33-.5-2-.16.5-.67,2.33-.83,2.33-.83,2.33-1,2.33-.83,2.16-1,2.33-1.16,2.16-1,2.33-1.33,2.16-1.17,2.17-1.33,2.16-1.33,2-1.33,2.16-1.49,2-1.5,2-1.67,2-1.66,2-1.66,2-1.83,1.83-1.67,1.83c-35.26,35.26-90.32,38.92-129.74,11.31-23.79-16.8-48.74-24.79-77.85-24.79h-80.18Z"/><path class="cls-12" d="M1915.43,887.69a360.45,360.45,0,0,0,599.5,149l-103.8-103.8a213.45,213.45,0,0,1-301.91,0l-2.49-2.5c-27.45-28.44-61.55-42.75-101.14-42.75Z"/><path class="cls-13" d="M2463.7,985.5a287.13,287.13,0,0,1-203.6,84.34c-121.6,0-225.57-75.52-267.82-182.15h13.31c39.59,0,73.69,14.31,101.14,42.75l2.49,2.5a213.45,213.45,0,0,0,301.91,0Z"/><path class="cls-14" d="M3867,1130q-83-21.37-132.19-53.79l67.39-145.15q46.65,29.8,112.75,48.61t129.6,18.78q128.29,0,128.31-63.5,0-29.82-35-42.77t-107.56-22q-85.55-13-141.27-29.81t-96.54-59.61q-40.83-42.78-40.83-121.83,0-66.09,38.23-117.28t111.46-79.7q73.21-28.5,173-28.52a679.55,679.55,0,0,1,147.09,16.2q73.23,16.2,121.19,44.71l-67.39,143.86q-92-51.86-200.89-51.85-64.8,0-97.2,18.14t-32.39,46.66q0,32.42,35,45.38t111.45,24.6q85.56,14.28,140,30.47t94.61,59Q4366,853.32,4366,929.78q0,64.8-38.89,115.34t-113.41,78.43q-74.52,27.84-176.89,27.86A677.64,677.64,0,0,1,3867,1130Z"/><path class="cls-15" d="M5597.17,443.78,5344.45,1141H5150L4993.23,708.17l-162,432.86H4636.82L4385.4,443.78h190.52l164.59,471.75,171.06-471.75h171.08l165.89,471.75,169.77-471.75Z"/><path class="cls-16" d="M6198.51,510.53q86.82,77.12,86.83,232.63V1141H6096.12V1054.2q-57,97.23-212.53,97.21-80.37,0-139.33-27.22T5654.18,1049q-31.1-48-31.09-108.86,0-97.2,73.22-152.93t226.15-55.73h160.71q0-66.09-40.18-101.73t-120.53-35.65A352.26,352.26,0,0,0,5813,611.62q-53.79,17.49-91.36,47.3L5649,517.66q57-40.18,136.72-62.21a612.71,612.71,0,0,1,164-22Q6111.68,433.42,6198.51,510.53ZM6026.14,991.34q40.17-24,57-70.62V849.44H5944.49q-124.42,0-124.42,81.64,0,38.88,30.46,61.56t83.59,22.67Q5986,1015.31,6026.14,991.34Z"/><path class="cls-17" d="M7057.1,478.14q79.68,44.72,125.06,125.7t45.36,188.57q0,107.57-45.36,188.56T7057.1,1106.69q-79.71,44.71-176.91,44.72-133.5,0-209.95-84.25v325.29H6468.07V443.78h193.11v80.36q75.14-90.7,219-90.72Q6977.39,433.42,7057.1,478.14ZM6972.85,933q49.89-52.5,49.9-140.62t-49.9-140.61q-49.91-52.5-127.64-52.5t-127.67,52.5q-49.9,52.5-49.9,140.61T6717.54,933q49.89,52.5,127.67,52.49T6972.85,933Z"/><path class="cls-18" d="M2735.25,192.28v940h81V332.61A162,162,0,0,0,2735.25,192.28Z"/><g class="cls-19"><path class="cls-20" d="M1414.65,1075.26a563.69,563.69,0,0,0,108.87-249.94l-.45,1.46A569.75,569.75,0,0,0,1504.64,560,268,268,0,0,1,1461,579.29a443.17,443.17,0,0,1,6.31,74.71c0,243.32-197.14,448.24-440.46,448.24-46.14,0-90.76-14.77-132.56-27.93C798.1,1039.79,721.52,981.21,669,908.56l-1.12,1.1A438.52,438.52,0,0,1,586.11,654q0-19.53,1.67-38.64l.1-.06.45-.3A463.61,463.61,0,0,1,604,529.39c53.75-182.64,222.66-316,422.7-316a439.84,439.84,0,0,1,143,23.74,234.67,234.67,0,0,1,24.23-23.32A561.63,561.63,0,0,0,1049.66,172c3.48.14,7,.31,10.48.54-296.92-50.39-579.22,140.7-645.87,430.87l-.18.76c-.37,1.64-.74,3.27-1.1,4.91-.31,1.42-.62,2.85-.92,4.27-.12.56-.24,1.12-.35,1.67q-4,19.2-6.72,38.84a571.09,571.09,0,0,0-5.53,79.67l.26-.17c1,311.53,253.89,563.75,565.67,563.75,180.91,0,342-84.92,445.54-217.08l2.41-3.12Z"/><path class="cls-21" d="M975.6,164.8C730.32,201.41,542.18,412.93,542.18,668.41c0,281.23,228,509.22,509.22,509.22,198.21,0,370-113.25,454.1-278.56a571.55,571.55,0,0,0,17.55-73.57c-.14.49-.3,1-.44,1.46a570,570,0,0,0-18.44-266.75,268,268,0,0,1-43.68,19.26,443.17,443.17,0,0,1,6.31,74.71c0,243.32-197.13,448.23-440.45,448.23-46.15,0-90.76-14.76-132.56-27.92-96.15-34.53-172.73-93.1-225.3-165.75l-1.12,1.1a438.59,438.59,0,0,1-81.73-255.66q0-19.53,1.68-38.64l.1-.06.45-.3a464.41,464.41,0,0,1,15.65-85.61c53.76-182.64,222.66-316,422.7-316a439.84,439.84,0,0,1,143,23.74A234.67,234.67,0,0,1,1193.47,214a561.51,561.51,0,0,0-144.28-41.82c3.49.14,7,.31,10.49.54A569.55,569.55,0,0,0,975.6,164.8Z"/><path class="cls-22" d="M904,274.38a414.92,414.92,0,0,1,218.07,15.83,27.33,27.33,0,0,1,2.83,1.22,419.58,419.58,0,0,1,82.68,40.27c46.76-9.19,95.34-13.73,140.06-18.25L1352.5,298c-69.25-51.73-201-109.95-292.36-125.45C902.38,162.1,768.25,243.36,683.7,364.1a563.32,563.32,0,0,0-55,96.47C690,365.28,788.68,296.31,904,274.38Z"/><path class="cls-23" d="M1422,323.34c-27.83,15.51-97.77,52.8-134.32,73.86a419.66,419.66,0,0,1,116.59,290.86c0,213.93-159.53,390.59-366.12,417.53,205.72,18.39,422-67.72,485.4-280.27C1548.43,678.54,1497.88,438.69,1422,323.34Z"/><path class="cls-24" d="M683.7,364.1c-27.1,38.49-48.61,78.33-63.89,118A414.06,414.06,0,0,1,873.14,281.72c-10.36-71.61,91.88-113.64,187-109.16C902.38,162.1,768.25,243.36,683.7,364.1Z"/><path class="cls-25" d="M1278.3,988.39c-76.29,72.06-188.22,110.41-299.77,109l20.37,3.45c216.72,33.66,457.12-49.36,524.62-275.48C1455.24,994.25,1318,1042.85,1278.3,988.39Z"/><g class="cls-26"><path d="M1267.47,412.85a517.12,517.12,0,0,1,76.6-25.63,417.68,417.68,0,0,1,45-8.54c85.38-11.43,191.92,2.5,281.43,100.75l-138.92,262.5c-10.06-83.27-101.81-167.73-149.89-184-29-9.83-111.18,4.63-141.29,22.75-31.5,18.92-75.17,66.85-99.94,88.41-28.18,24.41-17.53,84.19-27.74,95.81a142,142,0,0,0,8.58-11.67L934.71,670.84C950.52,647,1090.39,487,1267.47,412.85Z"/></g><path class="cls-27" d="M1256.86,365.54a516.3,516.3,0,0,1,76.6-25.62,417.64,417.64,0,0,1,45-8.55c85.39-11.42,191.92,2.5,281.43,100.76L1531,654.3c-27.83-78.66-143.26-104.57-190.87-96.37-30.16,5.2-61.78,19.44-91.89,37.56-31.49,18.92-61.32,42.1-86.09,63.67-28.17,24.4-49.82,46.78-60,58.41,1.76-2.14,5-6.3,8.58-11.67L924.1,623.54C939.91,599.69,1079.78,439.69,1256.86,365.54Z"/><path class="cls-28" d="M1256.86,365.54a516.3,516.3,0,0,1,76.6-25.62,417.64,417.64,0,0,1,45-8.55c-2.52,102.77-94.62,221.85-130.23,264.12-31.49,18.92-61.32,42.1-86.09,63.67l-5.26-2.59S1154.66,609.73,1256.86,365.54Z"/><path class="cls-29" d="M1104.93,150.37,1303.41,40.81c1.65,1.82,3.31,3.63,4.88,5.46q11.93,13.67,21.79,27.49c.93,1.22,1.81,2.48,2.61,3.74,73.73,106.18,59.55,218.11,32.18,296.9-44.94,129.45-148.39,240.51-226.3,309.09L1199.18,750,828.89,826.36a.24.24,0,0,0-.13.06L939.26,464.7l66.9,73.44c49.73-43.51,122.9-118.94,142.26-190.64C1161,300.86,1167.62,188.48,1104.93,150.37Z"/><path class="cls-30" d="M1332.69,77.5c73.73,106.18,59.55,218.11,32.18,296.9-44.94,129.45-148.39,240.51-226.3,309.09L1199.18,750,828.89,826.36C839.2,820.17,1545.62,394.33,1332.69,77.5Z"/><path class="cls-31" d="M841.59,810.54,942.48,485.06l58.93,64.68s260.85-195.34,125-380.58c50.29-45.82,166.35-107.34,171.9-112.39C1314.93,74.53,1592.69,304.12,841.59,810.54Z"/></g></g></g></svg>